<svg width="20" height="20" viewBox="0 0 20 20" fill="none" xmlns="http://www.w3.org/2000/svg">
<path fill-rule="evenodd" clip-rule="evenodd" d="M13.6666 15.5H17.8703C18.5862 15.5 19.1666 14.9196 19.1666 14.2036C19.1666 13.8598 19.0301 13.5301 18.7869 13.287L17.8703 12.3703C17.5265 12.0265 17.3333 11.5602 17.3333 11.074L17.3333 8.13979C17.3333 4.10455 14.0621 0.833344 10.0269 0.833344C5.98304 0.833344 2.70829 4.11793 2.72043 8.16173L2.72911 11.052C2.73061 11.5512 2.52849 12.0294 2.16944 12.3762L1.22623 13.2872C0.975126 13.5297 0.833315 13.8638 0.833313 14.2129C0.833313 14.9238 1.40956 15.5 2.12039 15.5H6.33331C6.33331 17.5251 7.97494 19.1667 9.99998 19.1667C12.025 19.1667 13.6666 17.5251 13.6666 15.5ZM16.898 13.3426L17.6804 14.125H2.33799L3.12468 13.3652C3.75302 12.7583 4.10672 11.9214 4.1041 11.0479L4.09543 8.1576C4.08557 4.87481 6.74405 2.20834 10.0269 2.20834C13.3027 2.20834 15.9583 4.86394 15.9583 8.13979L15.9583 11.074C15.9583 11.9249 16.2963 12.7409 16.898 13.3426ZM12.2916 15.5H7.70831C7.70831 16.7657 8.73433 17.7917 9.99998 17.7917C11.2656 17.7917 12.2916 16.7657 12.2916 15.5Z" fill="#225FE9"/>
</svg>
